<?xml version="1.0" encoding="UTF-8"?>
<svg version="1.1" xmlns="http://www.w3.org/2000/svg" width="256" height="256">
<path d="M0 0 C2.24218963 3.26073107 1.91578544 5.0953179 1.51123047 9.00415039 C1.44950653 9.65595779 1.38778259 10.3077652 1.32418823 10.97932434 C1.18787539 12.38573082 1.04148581 13.79118959 0.8861084 15.19561768 C0.64243836 17.40542103 0.42757055 19.61643986 0.21923828 21.82983398 C-0.14613619 25.6426004 -0.55150261 29.44969494 -0.97558594 33.25634766 C-1.1479317 34.82344183 -1.31446378 36.39118479 -1.47558594 37.95947266 C-1.71251878 40.26493846 -1.96587455 42.56806368 -2.22314453 44.87133789 C-2.32645584 45.91815987 -2.32645584 45.91815987 -2.43185425 46.98612976 C-2.89171351 50.89892228 -3.46125387 53.61881191 -6.35595703 56.39086914 C-9.67236328 56.98461914 -9.67236328 56.98461914 -13.35595703 56.39086914 C-15.67656143 54.58367279 -17.37923844 53.0460198 -19.29345703 50.89086914 C-20.03305664 50.10389648 -20.03305664 50.10389648 -20.78759766 49.30102539 C-21.99366202 48.01299549 -23.17718962 46.70392651 -24.35595703 45.39086914 C-27.19592888 46.68220458 -29.2471773 48.03457892 -31.44302368 50.24415588 C-32.02620865 50.82603668 -32.60939362 51.40791748 -33.21025085 52.00743103 C-34.1517675 52.96209007 -34.1517675 52.96209007 -35.11230469 53.93603516 C-35.78267258 54.60771729 -36.45304047 55.27939941 -37.14372253 55.97143555 C-39.35712057 58.19132165 -41.56346171 60.41809185 -43.77001953 62.64477539 C-45.3059995 64.18702533 -46.84249547 65.72876153 -48.37948608 67.27000427 C-52.42385523 71.32767775 -56.46262021 75.39088004 -60.49981689 79.45568848 C-66.96811197 85.96710445 -73.44314362 92.47180471 -79.92139816 98.97331047 C-82.18726039 101.24942459 -84.44969542 103.5289055 -86.71182251 105.80873108 C-88.09389999 107.19763388 -89.47608601 108.58642869 -90.85839844 109.97509766 C-91.49012466 110.61356125 -92.12185089 111.25202484 -92.77272034 111.90983582 C-96.60059779 115.74775878 -98.58140664 117.55653166 -103.98095703 117.89086914 C-105.20685547 117.99915039 -105.20685547 117.99915039 -106.45751953 118.10961914 C-113.86668818 116.27230508 -120.09718855 107.78717665 -125.35595703 102.48852539 C-126.07710693 101.76596054 -126.79825684 101.04339569 -127.54125977 100.29893494 C-129.81521118 98.0194431 -132.08563657 95.73647675 -134.35595703 93.45336914 C-135.90910938 91.89519408 -137.4624927 90.33724921 -139.01611328 88.77954102 C-142.79873289 84.98597155 -146.57847393 81.18955299 -150.35595703 77.39086914 C-154.5016921 79.02054187 -157.25626971 82.03805771 -160.31445312 85.15405273 C-160.90036728 85.74288742 -161.48628143 86.33172211 -162.08995056 86.93840027 C-163.359676 88.21572718 -164.62708587 89.49535913 -165.89243698 90.7770195 C-167.89757704 92.80772094 -169.90892866 94.83207906 -171.92202759 96.85488892 C-176.92177135 101.88135754 -181.91064452 106.91857179 -186.89984131 111.95550537 C-191.11509854 116.21028548 -195.33446356 120.4609107 -199.55934525 124.7061348 C-201.53650152 126.69621496 -203.50751278 128.69224559 -205.47836304 130.68856812 C-206.69816695 131.91564157 -207.91825507 133.14243259 -209.13867188 134.36889648 C-209.68121109 134.92176834 -210.22375031 135.4746402 -210.7827301 136.04426575 C-219.68464692 144.94861619 -219.68464692 144.94861619 -225.79345703 145.01586914 C-230.23560048 144.79037963 -232.8909306 143.33545334 -236.03564453 140.23461914 C-238.24488063 137.14953205 -238.92032016 134.1349367 -238.35595703 130.39086914 C-236.05883634 124.67062623 -232.403985 121.01917543 -228.10229492 116.76489258 C-226.99936852 115.65649017 -226.99936852 115.65649017 -225.87416077 114.5256958 C-223.44964407 112.09309444 -221.01446745 109.67148872 -218.57861328 107.25024414 C-216.88803356 105.56018319 -215.19797226 103.86960353 -213.50840759 102.17852783 C-209.96985969 98.64006955 -206.42620784 95.10682935 -202.87866211 91.57739258 C-198.3293261 87.05076912 -193.79117312 82.513129 -189.2565546 77.97176743 C-185.76971427 74.481588 -182.27790954 70.99641098 -178.78448296 67.51282501 C-177.10899021 65.8411836 -175.43484644 64.16818899 -173.76207161 62.49382782 C-171.42594597 60.15733185 -169.08343701 57.82743367 -166.73901367 55.49926758 C-165.70167084 54.45820862 -165.70167084 54.45820862 -164.64337158 53.39611816 C-163.68241325 52.44578705 -163.68241325 52.44578705 -162.70204163 51.47625732 C-162.14917512 50.92544369 -161.59630861 50.37463005 -161.02668858 49.80712509 C-157.50751938 46.82397419 -154.14887025 45.76046705 -149.48135376 45.88510132 C-146.82110993 46.51814348 -145.60594624 47.57448266 -143.59960938 49.4206543 C-142.90438171 50.05779358 -142.20915405 50.69493286 -141.49285889 51.35137939 C-138.01051957 54.67497392 -134.59113659 58.05285539 -131.20751953 61.47680664 C-130.46891693 62.21919586 -129.73031433 62.96158508 -128.96932983 63.72647095 C-126.63740425 66.07050032 -124.30878446 68.41777035 -121.98095703 70.76586914 C-118.89266081 73.88069603 -115.80110651 76.99223543 -112.70751953 80.10180664 C-111.99923004 80.81839447 -111.29094055 81.5349823 -110.56118774 82.27328491 C-109.90645477 82.93132111 -109.2517218 83.5893573 -108.57714844 84.26733398 C-108.00171295 84.84800629 -107.42627747 85.42867859 -106.83340454 86.02694702 C-105.38186907 87.49378885 -105.38186907 87.49378885 -103.35595703 88.39086914 C-103.13855865 87.84815369 -102.92116028 87.30543823 -102.69717407 86.74627686 C-100.89956536 83.58936689 -98.46158539 81.23436791 -95.89648438 78.7043457 C-95.3402388 78.14780807 -94.78399323 77.59127045 -94.21089172 77.01786804 C-92.37592798 75.18429472 -90.53398772 73.35790242 -88.69189453 71.53149414 C-87.41636314 70.2596939 -86.14127336 68.98745061 -84.86660767 67.71478271 C-81.51400308 64.36980656 -78.1554353 61.03088063 -74.79559326 57.69317627 C-71.36678247 54.28484083 -67.9436413 50.87082169 -64.52001953 47.45727539 C-57.80420431 40.76289617 -51.08207609 34.07489448 -44.35595703 27.39086914 C-46.44257773 22.81003711 -49.83444193 19.915535 -53.54345703 16.63305664 C-56.0703461 14.25323519 -57.28751737 12.7182251 -58.00439453 9.28930664 C-57.12151494 5.34294123 -55.73777833 4.55396596 -52.35595703 2.39086914 C-49.56343521 1.78054927 -47.05277142 1.37921968 -44.23095703 1.12524414 C-43.44760986 1.04211975 -42.6642627 0.95899536 -41.85717773 0.87335205 C-40.20052633 0.7008836 -38.5430002 0.53664317 -36.88476562 0.38012695 C-34.38987344 0.14407807 -31.89862461 -0.11683301 -29.40673828 -0.38256836 C-4.35986152 -2.97780801 -4.35986152 -2.97780801 0 0 Z " fill="#0FB880" transform="translate(246.35595703125,56.609130859375)"/>
</svg>
